# File created by Blade
# Date/Time:  Wed Jan 21 17:05:57 2015
# Frame Rate: 120.000 fps
#------------------------------------------------------
:FULLY-SPECIFIED
:DEGREES
367
root 19.024470 8.359435 -13.624826 -181.618410 3.577898 -178.525753
Spine 79.706943 3.474069 1.241034
Head -11.916835 -0.214217 2.038392
LeftShoulder 24.200591 -64.189244 21.957836
LeftArm 51.849215 10.234765 -11.633969
LeftForeArm 0.838515 -0.000000 -0.847615
LeftHand -5.778350 -0.000000 17.584684
LeftHandThumb1 -26.253704 0.000000 33.147579
RightShoulder 11.166158 28.105020 -35.981036
RightArm 51.367514 33.828409 18.828508
RightForeArm -25.878085 -0.000000 10.203611
RightHand -10.213219 -0.000000 -13.212883
RightHandThumb1 -24.326973 -0.000000 -32.862282
LeftUpLeg -122.014035 28.457749 -8.637978
LeftLeg 150.086641 -0.000000 -0.000000
LeftFoot -47.864248 19.922941 -11.710542
LeftToeBase 25.292989 -0.000000 -0.000000
RightUpLeg -119.287397 -20.314358 6.360853
RightLeg 146.939124 -0.000000 -0.000000
RightFoot -46.821327 -24.410973 14.581129
RightToeBase 25.224219 -0.000000 -0.000000
368
root 19.026662 8.356857 -13.624169 -181.610319 3.580732 -178.521006
Spine 79.677136 3.476765 1.233247
Head -11.938153 -0.190133 2.029070
LeftShoulder 24.235789 -64.211452 21.919915
LeftArm 51.841961 10.281368 -11.607994
LeftForeArm 0.784290 -0.000000 -0.840221
LeftHand -5.766991 0.000000 17.574546
LeftHandThumb1 -26.253704 0.000000 33.147579
RightShoulder 11.145045 28.123207 -35.968268
RightArm 51.465919 33.836782 18.916094
RightForeArm -26.001054 -0.000000 10.183774
RightHand -10.176628 -0.000000 -13.184254
RightHandThumb1 -24.326973 -0.000000 -32.862282
LeftUpLeg -122.022326 28.456622 -8.622631
LeftLeg 150.088278 -0.000000 -0.000000
LeftFoot -47.864293 19.970678 -11.661986
LeftToeBase 25.259627 -0.000000 -0.000000
RightUpLeg -119.304042 -20.293267 6.364567
RightLeg 146.948145 -0.000000 -0.000000
RightFoot -46.816475 -24.417347 14.581053
RightToeBase 25.251488 -0.000000 -0.000000
369
root 19.028519 8.354162 -13.622546 -181.595208 3.581984 -178.518540
Spine 79.634394 3.462589 1.213078
Head -11.951026 -0.170698 1.978749
LeftShoulder 24.240977 -64.249558 21.898277
LeftArm 51.831152 10.308450 -11.660642
LeftForeArm 0.819221 -0.000000 -0.861548
LeftHand -5.824608 -0.000000 17.649516
LeftHandThumb1 -26.253704 0.000000 33.147579
RightShoulder 11.155378 28.160000 -35.980325
RightArm 51.544216 33.858587 19.034767
RightForeArm -26.058843 -0.000000 10.171241
RightHand -10.226322 0.000000 -13.336560
RightHandThumb1 -24.326973 -0.000000 -32.862282
LeftUpLeg -122.048043 28.448263 -8.621686
LeftLeg 150.086286 -0.000000 -0.000000
LeftFoot -47.869052 19.986550 -11.652491
LeftToeBase 25.288580 -0.000000 -0.000000
RightUpLeg -119.325786 -20.269306 6.368104
RightLeg 146.950239 -0.000000 -0.000000
RightFoot -46.824390 -24.423324 14.589499
RightToeBase 25.231044 -0.000000 -0.000000
370
root 19.030262 8.352821 -13.621276 -181.574332 3.584003 -178.514818
Spine 79.591113 3.478092 1.225326
Head -11.960206 -0.123772 1.977742
LeftShoulder 24.266477 -64.283425 21.887024
LeftArm 51.825369 10.323790 -11.695111
LeftForeArm 0.847092 -0.000000 -0.848792
LeftHand -5.793096 0.000000 17.610960
LeftHandThumb1 -26.253704 0.000000 33.147579
RightShoulder 11.141368 28.214023 -35.957769
RightArm 51.578994 33.830725 19.095099
RightForeArm -26.149032 -0.000000 10.153961
RightHand -10.196237 -0.000000 -13.431664
RightHandThumb1 -24.326973 -0.000000 -32.862282
LeftUpLeg -122.070056 28.444839 -8.616023
LeftLeg 150.084664 -0.000000 -0.000000
LeftFoot -47.863428 20.005605 -11.621353
LeftToeBase 25.299749 -0.000000 -0.000000
RightUpLeg -119.355151 -20.245503 6.386158
RightLeg 146.958668 -0.000000 -0.000000
RightFoot -46.792072 -24.361194 14.674401
RightToeBase 24.903854 -0.000000 -0.000000
371
root 19.032223 8.353963 -13.619245 -181.556940 3.578517 -178.506555
Spine 79.558400 3.463033 1.221187
Head -11.998758 -0.168134 1.981902
LeftShoulder 24.260745 -64.323780 21.871174
LeftArm 51.832670 10.362478 -11.704853
LeftForeArm 0.863087 -0.000000 -0.850462
LeftHand -5.774004 -0.000000 17.633241
LeftHandThumb1 -26.253704 0.000000 33.147579
RightShoulder 11.123666 28.223997 -35.968867
RightArm 51.647591 33.844292 19.159593
RightForeArm -26.179880 -0.000000 10.138982
RightHand -10.185408 0.000000 -13.479011
RightHandThumb1 -24.326973 -0.000000 -32.862282
LeftUpLeg -122.074313 28.431698 -8.603542
LeftLeg 150.071765 -0.000000 -0.000000
LeftFoot -47.869591 20.026445 -11.600573
LeftToeBase 25.354973 -0.000000 -0.000000
RightUpLeg -119.368783 -20.224570 6.407205
RightLeg 146.953517 -0.000000 -0.000000
RightFoot -46.797198 -24.372042 14.705239
RightToeBase 24.903386 -0.000000 -0.000000
372
root 19.034745 8.354204 -13.616565 -181.529460 3.583538 -178.501570
Spine 79.505308 3.454705 1.205289
Head -12.015751 -0.147302 1.944706
LeftShoulder 24.262493 -64.344595 21.843385
LeftArm 51.843738 10.423986 -11.657418
LeftForeArm 0.814037 -0.000000 -0.847540
LeftHand -5.686176 -0.000000 17.700797
LeftHandThumb1 -26.253704 0.000000 33.147579
RightShoulder 11.120704 28.275871 -35.985475
RightArm 51.722304 33.838919 19.265687
RightForeArm -26.294022 0.000000 10.120610
RightHand -10.246583 -0.000000 -13.517917
RightHandThumb1 -24.326973 -0.000000 -32.862282
LeftUpLeg -122.090795 28.425203 -8.596954
LeftLeg 150.062228 -0.000000 -0.000000
LeftFoot -47.878095 20.041156 -11.590197
LeftToeBase 25.339613 -0.000000 -0.000000
RightUpLeg -119.385841 -20.202290 6.411864
RightLeg 146.940393 -0.000000 -0.000000
RightFoot -46.830581 -24.483629 14.585126
RightToeBase 25.261460 -0.000000 -0.000000
373
root 19.038018 8.368462 -13.614565 -181.561125 3.575065 -178.495048
Spine 79.577846 3.451029 1.219857
Head -12.119993 -0.134855 1.958420
LeftShoulder 24.266624 -64.393096 21.867534
LeftArm 51.835550 10.425503 -11.618662
LeftForeArm 0.798775 -0.000000 -0.864988
LeftHand -5.635339 -0.000000 17.724120
LeftHandThumb1 -26.253704 0.000000 33.147579
RightShoulder 11.106509 28.284642 -35.991460
RightArm 51.602616 33.809653 19.066586
RightForeArm -26.174986 -0.000000 10.152035
RightHand -10.190616 0.000000 -13.513769
RightHandThumb1 -24.326973 -0.000000 -32.862282
LeftUpLeg -121.987359 28.434195 -8.557318
LeftLeg 150.023553 -0.000000 -0.000000
LeftFoot -47.887240 20.006460 -11.616368
LeftToeBase 25.342558 -0.000000 -0.000000
RightUpLeg -119.301436 -20.198654 6.419407
RightLeg 146.912774 -0.000000 -0.000000
RightFoot -46.849718 -24.448408 14.661015
RightToeBase 25.273085 -0.000000 -0.000000
374
root 19.039849 8.371645 -13.612107 -181.557674 3.570429 -178.488357
Spine 79.567719 3.448466 1.282131
Head -12.166875 -0.194496 1.943865
LeftShoulder 24.542326 -64.639536 21.643739
LeftArm 51.693751 10.299765 -12.130426
LeftForeArm 1.387741 -0.000000 -0.985464
LeftHand -5.665525 0.000000 17.670305
LeftHandThumb1 -26.253704 0.000000 33.147579
RightShoulder 11.086529 27.905760 -36.007527
RightArm 51.332642 33.847998 18.382561
RightForeArm -25.566540 -0.000000 10.238290
RightHand -10.248750 0.000000 -13.349664
RightHandThumb1 -24.326973 -0.000000 -32.862282
LeftUpLeg -121.959592 28.426459 -8.526015
LeftLeg 150.005988 -0.000000 -0.000000
LeftFoot -47.905288 20.010375 -11.611470
LeftToeBase 25.393777 -0.000000 -0.000000
RightUpLeg -119.285963 -20.186217 6.429973
RightLeg 146.901633 -0.000000 -0.000000
RightFoot -46.859534 -24.440019 14.694803
RightToeBase 25.214020 -0.000000 -0.000000
375
root 19.042321 8.375693 -13.609869 -181.558032 3.560910 -178.487732
Spine 79.552410 3.435209 1.279958
Head -12.186418 -0.216616 1.947848
LeftShoulder 24.520077 -64.612954 21.664298
LeftArm 51.728232 10.506009 -11.782249
LeftForeArm 0.966234 -0.000000 -0.883653
LeftHand -5.728960 0.000000 17.562394
LeftHandThumb1 -26.253704 0.000000 33.147579
RightShoulder 11.088691 27.812041 -35.998504
RightArm 51.306765 33.894099 18.235734
RightForeArm -25.520368 -0.000000 10.256307
RightHand -10.177651 -0.000000 -13.122409
RightHandThumb1 -24.326973 -0.000000 -32.862282
LeftUpLeg -121.930545 28.414694 -8.507838
LeftLeg 149.985533 -0.000000 -0.000000
LeftFoot -47.909045 20.010212 -11.610697
LeftToeBase 25.393944 -0.000000 -0.000000
RightUpLeg -119.251501 -20.188508 6.426589
RightLeg 146.889510 -0.000000 -0.000000
RightFoot -46.888271 -24.463576 14.647020
RightToeBase 25.328246 -0.000000 -0.000000
376
root 19.047093 8.378919 -13.608122 -181.529290 3.573659 -178.508707
Spine 79.488574 3.457569 1.216039
Head -12.179674 -0.187770 1.967131
LeftShoulder 24.365392 -64.538920 21.774512
LeftArm 51.825873 10.543962 -11.624475
LeftForeArm 0.777063 -0.000000 -0.861638
LeftHand -5.658369 0.000000 17.715507
LeftHandThumb1 -26.253704 0.000000 33.147579
RightShoulder 11.053918 28.064149 -35.988279
RightArm 51.638284 33.916122 18.834486
RightForeArm -26.011427 -0.000000 10.166981
RightHand -10.172869 0.000000 -13.264685
RightHandThumb1 -24.326973 -0.000000 -32.862282
LeftUpLeg -121.927006 28.449085 -8.513210
LeftLeg 149.963381 -0.000000 -0.000000
LeftFoot -47.920275 19.993807 -11.585876
LeftToeBase 25.425643 -0.000000 -0.000000
RightUpLeg -119.273367 -20.151948 6.431691
RightLeg 146.884528 -0.000000 -0.000000
RightFoot -46.898232 -24.483401 14.660193
RightToeBase 25.288689 -0.000000 -0.000000
377
root 19.049504 8.380732 -13.606263 -181.508997 3.566699 -178.510008
Spine 79.427927 3.432630 1.173836
Head -12.175462 -0.148197 1.943380
LeftShoulder 24.319239 -64.546119 21.783244
LeftArm 51.849653 10.530206 -11.635541
LeftForeArm 0.744082 -0.000000 -0.874007
LeftHand -5.647636 -0.000000 17.410394
LeftHandThumb1 -26.253704 0.000000 33.147579
RightShoulder 11.056536 28.120949 -35.987144
RightArm 51.770430 33.928698 19.008242
RightForeArm -26.210934 -0.000000 10.134862
RightHand -10.123606 -0.000000 -13.247598
RightHandThumb1 -24.326973 -0.000000 -32.862282
LeftUpLeg -121.934031 28.437911 -8.512847
LeftLeg 149.949325 -0.000000 -0.000000
LeftFoot -47.920805 20.000500 -11.578280
LeftToeBase 25.456063 -0.000000 -0.000000
RightUpLeg -119.287377 -20.150492 6.447954
RightLeg 146.878791 -0.000000 -0.000000
RightFoot -46.911271 -24.472761 14.666306
RightToeBase 25.257720 -0.000000 -0.000000
